<svg xmlns="http://www.w3.org/2000/svg" xmlns:xlink="http://www.w3.org/1999/xlink" width="500" zoomAndPan="magnify" viewBox="0 0 375 374.999991" height="500" preserveAspectRatio="xMidYMid meet" version="1.2"><defs><clipPath id="084ca86590"><path d="M 52 151 L 323.789062 151 L 323.789062 180 L 52 180 Z M 52 151 "/></clipPath><clipPath id="794165c9f3"><path d="M 51.539062 158 L 56 158 L 56 166 L 51.539062 166 Z M 51.539062 158 "/></clipPath><clipPath id="c0dc585b6c"><path d="M 306 172 L 321 172 L 321 180.394531 L 306 180.394531 Z M 306 172 "/></clipPath><clipPath id="d15e43f123"><path d="M 60 232.855469 L 310 232.855469 L 310 235.105469 L 60 235.105469 Z M 60 232.855469 "/></clipPath></defs><g id="612944ca24"><g clip-rule="nonzero" clip-path="url(#084ca86590)"><path style=" stroke:none;fill-rule:evenodd;fill:#ffffff;fill-opacity:1;" d="M 323.433594 179.179688 C 313.855469 170.609375 302.644531 161.871094 278.121094 159.257812 C 264.390625 157.792969 242.1875 160.753906 228.378906 160.4375 C 207.941406 159.96875 187.6875 156.242188 167.273438 155.125 C 139.257812 153.585938 111.199219 152.703125 83.144531 152.46875 C 66.667969 152.332031 72.195312 157 53.625 151.878906 C 52.332031 151.320312 52.320312 154.957031 53.332031 155.640625 C 65.421875 160.117188 72.582031 155.921875 84.914062 155.9375 C 112.1875 155.96875 139.445312 157.449219 166.683594 158.742188 C 187.097656 159.707031 207.429688 162.640625 227.867188 162.726562 C 241.859375 162.785156 264.222656 159.34375 278.125 160.957031 C 298.699219 163.34375 313.308594 171.632812 323.433594 179.179688 "/></g><path style=" stroke:none;fill-rule:evenodd;fill:#ffffff;fill-opacity:1;" d="M 253.148438 157.398438 C 234.84375 148.402344 219.554688 138.386719 194.699219 136.917969 C 169.839844 135.457031 123.96875 142.855469 90.046875 150.609375 C 112.972656 150.242188 135.902344 151.269531 158.832031 153.265625 C 153.234375 151.015625 147.859375 149.722656 143.332031 147.363281 C 151.105469 144.414062 178.671875 137.664062 195.292969 139.390625 C 215.246094 141.464844 234.773438 149.75 253.148438 157.398438 "/><g clip-rule="nonzero" clip-path="url(#794165c9f3)"><path style=" stroke:none;fill-rule:evenodd;fill:#ffffff;fill-opacity:1;" d="M 51.804688 165.75 C 52.457031 165.75 53.105469 165.75 53.757812 165.75 C 53.230469 162.898438 53.472656 160.359375 55.605469 158.589844 C 51.890625 158.699219 51.519531 161.847656 51.804688 165.75 "/></g><path style=" stroke:none;fill-rule:evenodd;fill:#ffffff;fill-opacity:1;" d="M 243.222656 158.960938 C 239.472656 158.960938 235.722656 158.960938 231.96875 158.960938 C 231.96875 158.246094 232.09375 153.824219 233.816406 153.722656 C 237.699219 153.488281 243.074219 157.285156 243.222656 158.960938 "/><g clip-rule="nonzero" clip-path="url(#c0dc585b6c)"><path style=" stroke:none;fill-rule:evenodd;fill:#ffffff;fill-opacity:1;" d="M 320.015625 180.214844 C 317.464844 180.214844 317.234375 180.214844 314.6875 180.214844 C 312.796875 180.214844 308.195312 174.972656 306.550781 172.425781 C 311.207031 174.273438 316.40625 176.789062 320.015625 180.214844 "/></g><g style="fill:#000000;fill-opacity:1;"><g transform="translate(21.253456, 219.858345)"><path style="stroke:none" d="M 33.359375 0.0625 L 26.46875 -16.078125 L 10.84375 -16.078125 L 3.703125 0.0625 L 2.234375 0.0625 L 20.40625 -40.8125 L 20.796875 -40.8125 L 38.265625 0.0625 Z M 11.359375 -17.09375 L 26.015625 -17.09375 L 18.8125 -33.9375 Z M 11.359375 -17.09375 "/></g></g><g style="fill:#000000;fill-opacity:1;"><g transform="translate(61.806792, 219.858345)"><path style="stroke:none" d="M 32.265625 -40.046875 L 33.296875 -40.046875 L 33.296875 -14.796875 C 33.296875 -4.171875 28.128906 1.140625 17.796875 1.140625 C 15.921875 1.140625 14.085938 0.914062 12.296875 0.46875 C 10.515625 0.03125 8.910156 -0.757812 7.484375 -1.90625 C 6.066406 -3.0625 4.941406 -4.679688 4.109375 -6.765625 C 3.285156 -8.847656 2.875 -11.523438 2.875 -14.796875 L 2.875 -40.046875 L 7.46875 -40.046875 L 7.46875 -14.796875 C 7.46875 -13.859375 7.519531 -12.769531 7.625 -11.53125 C 7.726562 -10.300781 7.96875 -9.050781 8.34375 -7.78125 C 8.726562 -6.507812 9.328125 -5.316406 10.140625 -4.203125 C 10.953125 -3.097656 12.054688 -2.195312 13.453125 -1.5 C 14.859375 -0.800781 16.625 -0.453125 18.75 -0.453125 C 20.582031 -0.453125 22.304688 -0.660156 23.921875 -1.078125 C 25.535156 -1.503906 26.96875 -2.257812 28.21875 -3.34375 C 29.476562 -4.425781 30.46875 -5.9375 31.1875 -7.875 C 31.90625 -9.8125 32.265625 -12.3125 32.265625 -15.375 Z M 32.265625 -40.046875 "/></g></g><g style="fill:#000000;fill-opacity:1;"><g transform="translate(98.215523, 219.858345)"><path style="stroke:none" d="M 31.375 -40.046875 L 31.375 -38.96875 L 19 -38.96875 L 19 0.0625 L 14.484375 0.0625 L 14.484375 -38.96875 L 2.109375 -38.96875 L 2.109375 -40.046875 Z M 31.375 -40.046875 "/></g></g><g style="fill:#000000;fill-opacity:1;"><g transform="translate(131.691151, 219.858345)"><path style="stroke:none" d="M 24.484375 -40.8125 C 27.335938 -40.8125 30.082031 -40.40625 32.71875 -39.59375 C 35.351562 -38.789062 37.703125 -37.550781 39.765625 -35.875 C 41.828125 -34.195312 43.460938 -32.03125 44.671875 -29.375 C 45.890625 -26.71875 46.5 -23.539062 46.5 -19.84375 C 46.5 -16.4375 46 -13.53125 45 -11.125 C 44 -8.726562 42.679688 -6.734375 41.046875 -5.140625 C 39.410156 -3.546875 37.625 -2.28125 35.6875 -1.34375 C 33.75 -0.40625 31.800781 0.238281 29.84375 0.59375 C 27.894531 0.957031 26.109375 1.140625 24.484375 1.140625 C 22.910156 1.140625 21.144531 0.957031 19.1875 0.59375 C 17.238281 0.238281 15.285156 -0.40625 13.328125 -1.34375 C 11.367188 -2.28125 9.582031 -3.546875 7.96875 -5.140625 C 6.351562 -6.734375 5.046875 -8.726562 4.046875 -11.125 C 3.046875 -13.53125 2.546875 -16.4375 2.546875 -19.84375 C 2.546875 -23.539062 3.140625 -26.71875 4.328125 -29.375 C 5.523438 -32.03125 7.15625 -34.195312 9.21875 -35.875 C 11.28125 -37.550781 13.628906 -38.789062 16.265625 -39.59375 C 18.898438 -40.40625 21.640625 -40.8125 24.484375 -40.8125 Z M 24.484375 0.125 C 26.273438 0.125 28.179688 -0.140625 30.203125 -0.671875 C 32.222656 -1.203125 34.101562 -2.164062 35.84375 -3.5625 C 37.582031 -4.96875 39.003906 -6.988281 40.109375 -9.625 C 41.222656 -12.257812 41.78125 -15.664062 41.78125 -19.84375 C 41.78125 -23.15625 41.382812 -25.96875 40.59375 -28.28125 C 39.8125 -30.601562 38.78125 -32.507812 37.5 -34 C 36.226562 -35.488281 34.816406 -36.65625 33.265625 -37.5 C 31.710938 -38.351562 30.171875 -38.9375 28.640625 -39.25 C 27.109375 -39.570312 25.722656 -39.734375 24.484375 -39.734375 C 23.253906 -39.734375 21.875 -39.570312 20.34375 -39.25 C 18.8125 -38.9375 17.28125 -38.351562 15.75 -37.5 C 14.21875 -36.65625 12.800781 -35.488281 11.5 -34 C 10.207031 -32.507812 9.164062 -30.601562 8.375 -28.28125 C 7.59375 -25.96875 7.203125 -23.15625 7.203125 -19.84375 C 7.203125 -15.664062 7.753906 -12.257812 8.859375 -9.625 C 9.972656 -6.988281 11.410156 -4.96875 13.171875 -3.5625 C 14.929688 -2.164062 16.8125 -1.203125 18.8125 -0.671875 C 20.8125 -0.140625 22.703125 0.125 24.484375 0.125 Z M 24.484375 0.125 "/></g></g><g clip-rule="nonzero" clip-path="url(#d15e43f123)"><path style=" stroke:none;fill-rule:nonzero;fill:#ffffff;fill-opacity:1;" d="M 185.269531 235.105469 L 60.773438 233.980469 L 185.269531 232.855469 L 309.765625 233.980469 Z M 185.269531 235.105469 "/></g><g style="fill:#ffffff;fill-opacity:1;"><g transform="translate(182.003334, 219.608884)"><path style="stroke:none" d="M 43.75 -40.8125 L 48.53125 0.0625 L 43.9375 0 L 40.1875 -32.078125 L 23.734375 -1.015625 L 23.53125 -1.015625 L 7.65625 -31.578125 L 3.375 0.0625 L 2.296875 0.0625 L 7.84375 -40.8125 L 8.03125 -40.8125 L 25.640625 -6.828125 L 43.5625 -40.8125 Z M 43.75 -40.8125 "/></g></g><g style="fill:#ffffff;fill-opacity:1;"><g transform="translate(233.077588, 219.608884)"><path style="stroke:none" d="M 24.484375 -40.8125 C 27.335938 -40.8125 30.082031 -40.40625 32.71875 -39.59375 C 35.351562 -38.789062 37.703125 -37.550781 39.765625 -35.875 C 41.828125 -34.195312 43.460938 -32.03125 44.671875 -29.375 C 45.890625 -26.71875 46.5 -23.539062 46.5 -19.84375 C 46.5 -16.4375 46 -13.53125 45 -11.125 C 44 -8.726562 42.679688 -6.734375 41.046875 -5.140625 C 39.410156 -3.546875 37.625 -2.28125 35.6875 -1.34375 C 33.75 -0.40625 31.800781 0.238281 29.84375 0.59375 C 27.894531 0.957031 26.109375 1.140625 24.484375 1.140625 C 22.910156 1.140625 21.144531 0.957031 19.1875 0.59375 C 17.238281 0.238281 15.285156 -0.40625 13.328125 -1.34375 C 11.367188 -2.28125 9.582031 -3.546875 7.96875 -5.140625 C 6.351562 -6.734375 5.046875 -8.726562 4.046875 -11.125 C 3.046875 -13.53125 2.546875 -16.4375 2.546875 -19.84375 C 2.546875 -23.539062 3.140625 -26.71875 4.328125 -29.375 C 5.523438 -32.03125 7.15625 -34.195312 9.21875 -35.875 C 11.28125 -37.550781 13.628906 -38.789062 16.265625 -39.59375 C 18.898438 -40.40625 21.640625 -40.8125 24.484375 -40.8125 Z M 24.484375 0.125 C 26.273438 0.125 28.179688 -0.140625 30.203125 -0.671875 C 32.222656 -1.203125 34.101562 -2.164062 35.84375 -3.5625 C 37.582031 -4.96875 39.003906 -6.988281 40.109375 -9.625 C 41.222656 -12.257812 41.78125 -15.664062 41.78125 -19.84375 C 41.78125 -23.15625 41.382812 -25.96875 40.59375 -28.28125 C 39.8125 -30.601562 38.78125 -32.507812 37.5 -34 C 36.226562 -35.488281 34.816406 -36.65625 33.265625 -37.5 C 31.710938 -38.351562 30.171875 -38.9375 28.640625 -39.25 C 27.109375 -39.570312 25.722656 -39.734375 24.484375 -39.734375 C 23.253906 -39.734375 21.875 -39.570312 20.34375 -39.25 C 18.8125 -38.9375 17.28125 -38.351562 15.75 -37.5 C 14.21875 -36.65625 12.800781 -35.488281 11.5 -34 C 10.207031 -32.507812 9.164062 -30.601562 8.375 -28.28125 C 7.59375 -25.96875 7.203125 -23.15625 7.203125 -19.84375 C 7.203125 -15.664062 7.753906 -12.257812 8.859375 -9.625 C 9.972656 -6.988281 11.410156 -4.96875 13.171875 -3.5625 C 14.929688 -2.164062 16.8125 -1.203125 18.8125 -0.671875 C 20.8125 -0.140625 22.703125 0.125 24.484375 0.125 Z M 24.484375 0.125 "/></g></g><g style="fill:#ffffff;fill-opacity:1;"><g transform="translate(282.430232, 219.608884)"><path style="stroke:none" d="M 19.640625 -40.046875 C 21.085938 -40.046875 22.710938 -39.921875 24.515625 -39.671875 C 26.328125 -39.421875 28.132812 -38.929688 29.9375 -38.203125 C 31.75 -37.484375 33.398438 -36.421875 34.890625 -35.015625 C 36.378906 -33.609375 37.578125 -31.734375 38.484375 -29.390625 C 39.398438 -27.054688 39.859375 -24.148438 39.859375 -20.671875 C 39.859375 -17.054688 39.347656 -14.023438 38.328125 -11.578125 C 37.304688 -9.128906 35.96875 -7.148438 34.3125 -5.640625 C 32.65625 -4.128906 30.878906 -2.96875 28.984375 -2.15625 C 27.097656 -1.351562 25.269531 -0.800781 23.5 -0.5 C 21.738281 -0.207031 20.226562 -0.0390625 18.96875 0 C 17.71875 0.0390625 16.921875 0.0625 16.578125 0.0625 L 3.0625 0.0625 L 3.0625 -40.046875 Z M 16.515625 -1.015625 C 18.679688 -1.015625 20.867188 -1.3125 23.078125 -1.90625 C 25.296875 -2.507812 27.316406 -3.53125 29.140625 -4.96875 C 30.972656 -6.414062 32.441406 -8.414062 33.546875 -10.96875 C 34.648438 -13.519531 35.203125 -16.753906 35.203125 -20.671875 C 35.203125 -23.773438 34.816406 -26.410156 34.046875 -28.578125 C 33.285156 -30.742188 32.253906 -32.503906 30.953125 -33.859375 C 29.660156 -35.222656 28.226562 -36.265625 26.65625 -36.984375 C 25.082031 -37.710938 23.476562 -38.210938 21.84375 -38.484375 C 20.207031 -38.765625 18.664062 -38.90625 17.21875 -38.90625 L 7.65625 -38.90625 L 7.65625 -1.015625 Z M 16.515625 -1.015625 "/></g></g><g style="fill:#ffffff;fill-opacity:1;"><g transform="translate(325.215275, 219.608884)"><path style="stroke:none" d="M 23.40625 -38.96875 L 7.65625 -38.96875 L 7.65625 -21.4375 L 21.6875 -21.4375 L 21.6875 -20.34375 L 7.65625 -20.34375 L 7.65625 -1.015625 L 23.40625 -1.015625 L 23.40625 0.0625 L 3.0625 0.0625 L 3.0625 -40.046875 L 23.40625 -40.046875 Z M 23.40625 -38.96875 "/></g></g></g></svg>